<svg width="100" height="45" viewBox="0 0 100 45" fill="none" xmlns="http://www.w3.org/2000/svg">
<path d="M13.1562 20.6738C12.6816 20.9434 11.9727 21.1865 11.0293 21.4033C10.0859 21.6143 9.18652 21.7197 8.33105 21.7197C6.12207 21.7197 4.41699 21.1689 3.21582 20.0674C2.01465 18.96 1.41406 17.4102 1.41406 15.418C1.41406 14.082 1.71582 12.8955 2.31934 11.8584C2.92871 10.8213 3.78418 10.0332 4.88574 9.49414C5.9873 8.95508 7.28516 8.68555 8.7793 8.68555C9.875 8.68555 11.0439 8.84082 12.2861 9.15137V12.4648C11.7061 12.2012 11.1494 12.0195 10.6162 11.9199C10.083 11.8145 9.5 11.7617 8.86719 11.7617C7.82422 11.7617 6.99219 12.0752 6.37109 12.7021C5.75586 13.3291 5.44824 14.1904 5.44824 15.2861C5.44824 16.335 5.70605 17.1553 6.22168 17.7471C6.74316 18.3389 7.46973 18.6348 8.40137 18.6348C8.83496 18.6348 9.1543 18.6113 9.35938 18.5645V16.7627H6.94238V13.8887H13.1562V20.6738ZM18.0957 18.0635C18.1602 18.4502 18.3828 18.7549 18.7637 18.9775C19.1445 19.1943 19.6484 19.3027 20.2754 19.3027C21.1484 19.3027 21.9746 19.1357 22.7539 18.8018V21.1748C21.8457 21.5381 20.7441 21.7197 19.4492 21.7197C17.8789 21.7197 16.6572 21.3184 15.7842 20.5156C14.9111 19.7129 14.4746 18.6084 14.4746 17.2021C14.4746 16.2354 14.665 15.3828 15.0459 14.6445C15.4326 13.9062 16.001 13.3291 16.751 12.9131C17.5068 12.4912 18.3389 12.2803 19.2471 12.2803C20.1787 12.2803 20.9756 12.4619 21.6377 12.8252C22.2998 13.1885 22.8008 13.6982 23.1406 14.3545C23.4863 15.0107 23.6592 15.7783 23.6592 16.6572V18.0635H18.0957ZM20.3457 16.1035C20.3457 15.0664 19.9736 14.5479 19.2295 14.5479C18.9189 14.5479 18.6582 14.6914 18.4473 14.9785C18.2363 15.2598 18.1133 15.6348 18.0781 16.1035H20.3457ZM30.7959 21.5V16.5869C30.7959 16.0303 30.7109 15.6318 30.541 15.3916C30.377 15.1455 30.1074 15.0225 29.7324 15.0225C29.4102 15.0225 29.1582 15.1484 28.9766 15.4004C28.7949 15.6523 28.7041 15.9746 28.7041 16.3672V21.5H24.96V12.5H28.7041V13.9062H28.7393C29.0381 13.3906 29.4395 12.9922 29.9434 12.7109C30.4473 12.4238 30.9951 12.2803 31.5869 12.2803C33.5557 12.2803 34.54 13.5225 34.54 16.0068V21.5H30.7959ZM39.4531 18.0635C39.5176 18.4502 39.7402 18.7549 40.1211 18.9775C40.502 19.1943 41.0059 19.3027 41.6328 19.3027C42.5059 19.3027 43.332 19.1357 44.1113 18.8018V21.1748C43.2031 21.5381 42.1016 21.7197 40.8066 21.7197C39.2363 21.7197 38.0146 21.3184 37.1416 20.5156C36.2686 19.7129 35.832 18.6084 35.832 17.2021C35.832 16.2354 36.0225 15.3828 36.4033 14.6445C36.79 13.9062 37.3584 13.3291 38.1084 12.9131C38.8643 12.4912 39.6963 12.2803 40.6045 12.2803C41.5361 12.2803 42.333 12.4619 42.9951 12.8252C43.6572 13.1885 44.1582 13.6982 44.498 14.3545C44.8438 15.0107 45.0166 15.7783 45.0166 16.6572V18.0635H39.4531ZM41.7031 16.1035C41.7031 15.0664 41.3311 14.5479 40.5869 14.5479C40.2764 14.5479 40.0156 14.6914 39.8047 14.9785C39.5938 15.2598 39.4707 15.6348 39.4355 16.1035H41.7031ZM53.085 15.708C52.9443 15.6436 52.7539 15.585 52.5137 15.5322C52.2734 15.4795 52.0742 15.4531 51.916 15.4531C50.6797 15.4531 50.0615 16.168 50.0615 17.5977V21.5H46.3174V12.5H50.0615V14.082H50.0967C50.3252 13.5137 50.6504 13.083 51.0723 12.79C51.4941 12.4912 51.9863 12.3418 52.5488 12.3418C52.7539 12.3418 52.9326 12.377 53.085 12.4473V15.708ZM59.167 21.5V20.1289H59.1318C58.5342 21.1895 57.6201 21.7197 56.3896 21.7197C55.54 21.7197 54.875 21.4678 54.3945 20.9639C53.9141 20.46 53.6738 19.7861 53.6738 18.9424C53.6738 17.1729 54.7607 16.1475 56.9346 15.8662L59.167 15.5762C59.167 15.2832 59.0352 15.043 58.7715 14.8555C58.5078 14.668 58.1533 14.5742 57.708 14.5742C56.7002 14.5742 55.6367 14.8613 54.5176 15.4355V13.001C55.0039 12.79 55.6133 12.6172 56.3457 12.4824C57.0781 12.3477 57.7051 12.2803 58.2266 12.2803C59.7559 12.2803 60.8633 12.6084 61.5488 13.2646C62.2402 13.915 62.5859 15.0049 62.5859 16.5342V21.5H59.167ZM56.9521 18.4414C56.9521 18.6875 57.0283 18.8896 57.1807 19.0479C57.3389 19.2061 57.5615 19.2852 57.8486 19.2852C58.2412 19.2852 58.5576 19.1387 58.7979 18.8457C59.0439 18.5527 59.167 18.1777 59.167 17.7207V17.3779L57.9014 17.5537C57.2686 17.6592 56.9521 17.9551 56.9521 18.4414ZM70.6191 21.377C70.4492 21.459 70.1709 21.5352 69.7842 21.6055C69.3975 21.6816 68.9316 21.7197 68.3867 21.7197C67.3438 21.7197 66.5264 21.4326 65.9346 20.8584C65.3486 20.2842 65.0557 19.4668 65.0557 18.4062V15.0928H63.6406V12.5H65.0557V10.7334L68.7471 9.71387V12.5H70.6191V15.0928H68.7471V17.791C68.7471 18.582 69.0605 18.9775 69.6875 18.9775C69.9805 18.9775 70.291 18.9131 70.6191 18.7842V21.377ZM75.752 10.0742C75.752 10.6016 75.5586 11.0293 75.1719 11.3574C74.791 11.6855 74.2871 11.8496 73.6602 11.8496C73.0508 11.8496 72.5498 11.6797 72.1572 11.3398C71.7705 11 71.5771 10.5781 71.5771 10.0742C71.5771 9.55859 71.7646 9.14258 72.1396 8.82617C72.5205 8.50391 73.0273 8.34277 73.6602 8.34277C74.2871 8.34277 74.791 8.50391 75.1719 8.82617C75.5586 9.14258 75.752 9.55859 75.752 10.0742ZM71.7881 21.5V12.5H75.5322V21.5H71.7881ZM87.3535 16.8418C87.3535 18.3594 86.8936 19.5518 85.9736 20.4189C85.0596 21.2861 83.7793 21.7197 82.1328 21.7197C80.498 21.7197 79.2236 21.2979 78.3096 20.4541C77.4014 19.6045 76.9473 18.4355 76.9473 16.9473C76.9473 15.9922 77.1611 15.1631 77.5889 14.46C78.0166 13.7568 78.626 13.2178 79.417 12.8428C80.208 12.4678 81.1191 12.2803 82.1504 12.2803C83.2168 12.2803 84.1396 12.4766 84.9189 12.8691C85.7041 13.2617 86.3047 13.8066 86.7207 14.5039C87.1426 15.2012 87.3535 15.9805 87.3535 16.8418ZM83.5566 16.8594C83.5566 15.6348 83.0879 15.0225 82.1504 15.0225C81.2129 15.0225 80.7441 15.6641 80.7441 16.9473C80.7441 18.3008 81.2188 18.9775 82.168 18.9775C83.0938 18.9775 83.5566 18.2715 83.5566 16.8594ZM94.5869 21.5V16.5869C94.5869 16.0303 94.502 15.6318 94.332 15.3916C94.168 15.1455 93.8984 15.0225 93.5234 15.0225C93.2012 15.0225 92.9492 15.1484 92.7676 15.4004C92.5859 15.6523 92.4951 15.9746 92.4951 16.3672V21.5H88.751V12.5H92.4951V13.9062H92.5303C92.8291 13.3906 93.2305 12.9922 93.7344 12.7109C94.2383 12.4238 94.7861 12.2803 95.3779 12.2803C97.3467 12.2803 98.3311 13.5225 98.3311 16.0068V21.5H94.5869Z" fill="#FACC15"/>
<path d="M35.5332 37.5V24.8965H39.3301V34.5293H43.6719V37.5H35.5332ZM49.9209 37.5V36.1289H49.8857C49.2881 37.1895 48.374 37.7197 47.1436 37.7197C46.2939 37.7197 45.6289 37.4678 45.1484 36.9639C44.668 36.46 44.4277 35.7861 44.4277 34.9424C44.4277 33.1729 45.5146 32.1475 47.6885 31.8662L49.9209 31.5762C49.9209 31.2832 49.7891 31.043 49.5254 30.8555C49.2617 30.668 48.9072 30.5742 48.4619 30.5742C47.4541 30.5742 46.3906 30.8613 45.2715 31.4355V29.001C45.7578 28.79 46.3672 28.6172 47.0996 28.4824C47.832 28.3477 48.459 28.2803 48.9805 28.2803C50.5098 28.2803 51.6172 28.6084 52.3027 29.2646C52.9941 29.915 53.3398 31.0049 53.3398 32.5342V37.5H49.9209ZM47.7061 34.4414C47.7061 34.6875 47.7822 34.8896 47.9346 35.0479C48.0928 35.2061 48.3154 35.2852 48.6025 35.2852C48.9951 35.2852 49.3115 35.1387 49.5518 34.8457C49.7979 34.5527 49.9209 34.1777 49.9209 33.7207V33.3779L48.6553 33.5537C48.0225 33.6592 47.7061 33.9551 47.7061 34.4414ZM65.1875 32.7275C65.1875 33.7119 65.0234 34.585 64.6953 35.3467C64.373 36.1025 63.9131 36.6885 63.3154 37.1045C62.7178 37.5146 62.041 37.7197 61.2852 37.7197C60.7051 37.7197 60.207 37.6143 59.791 37.4033C59.3809 37.1865 59.0557 36.9082 58.8154 36.5684H58.7803V37.5H55.0361V24.1758H58.7803V29.7217H58.8154C59.1084 29.2764 59.5039 28.9248 60.002 28.667C60.5059 28.4092 61.0596 28.2803 61.6631 28.2803C62.7998 28.2803 63.6699 28.6582 64.2734 29.4141C64.8828 30.1699 65.1875 31.2744 65.1875 32.7275ZM61.3906 32.8418C61.3906 32.2383 61.2734 31.7842 61.0391 31.4795C60.8105 31.1748 60.4795 31.0225 60.0459 31.0225C59.665 31.0225 59.3457 31.1836 59.0879 31.5059C58.8359 31.8223 58.71 32.2354 58.71 32.7451V33.29C58.71 33.8057 58.8242 34.2158 59.0527 34.5205C59.2812 34.8252 59.5889 34.9775 59.9756 34.9775C60.4268 34.9775 60.7754 34.793 61.0215 34.4238C61.2676 34.0488 61.3906 33.5215 61.3906 32.8418Z" fill="#333333"/>
</svg>
